<?xml version="1.0" encoding="utf-8"?>
<!-- Generator: Adobe Illustrator 25.1.0, SVG Export Plug-In . SVG Version: 6.00 Build 0)  -->
<svg version="1.1" id="Calque_1" xmlns="http://www.w3.org/2000/svg" xmlns:xlink="http://www.w3.org/1999/xlink" x="0px" y="0px"
	 viewBox="0 0 300 300" style="enable-background:new 0 0 300 300;" xml:space="preserve">
<style type="text/css">
	.st0{fill:#FFFFFF;}
</style>
<g id="_x36_40fb903-7c97-3a8b-d0a7-369102908d0a" transform="matrix(0.8499999999999999,0,0,0.8499999999999999,22.500006484985377,22.50005836486818)">
	<g>
		<path class="st0" d="M150.6,321.8c45.9,0,88.9-17.6,121.2-50s50-75.4,50-121.2s-17.6-88.9-50-121.2c-32.4-32.4-75.4-50-121.2-50
			S61.7-3,29.4,29.4s-50,75.4-50,121.2s17.6,88.9,50,121.2S104.7,321.8,150.6,321.8z M160.4,292.7c-3.3,0.4-6.6,0.4-9.8,0.4
			c-4.5,0-9-0.4-13.5-0.8c-14.7-22.9-25.8-47.5-32.4-73.3h72.5c2.5,6.1,7,11.9,12.3,15.6C182.5,255,172.7,274.3,160.4,292.7z
			 M199.3,284.5c7.8-14.3,13.9-28.7,18.8-43.8C230,238.2,239.5,230,244,219h31.5C259.1,248.9,231.7,272.2,199.3,284.5z M292.7,150.6
			c0,13.5-2,26.6-5.3,39.3h-44.2c-2.5-5.3-6.6-10.2-11.5-13.9c0.8-9,1.2-18,1.2-27c0-12.7-0.8-25.4-2.5-37.7H287
			C291.1,123.6,292.7,137.1,292.7,150.6L292.7,150.6z M275.5,82.2h-50c-5.3-22.5-13.1-43.8-23.8-64.3
			C232.9,29.8,259.1,53.1,275.5,82.2z M204.2,149c0,7-0.4,13.9-0.8,20.9c-11.5,2.5-20.9,9.8-25.4,20.1H99c-1.6-12.3-2.9-25-2.9-37.3
			c0-7.8,0.4-15.6,1.2-23.3c10.6-2,19.2-9,24.6-18h79.9C203.4,123.6,204.2,136.3,204.2,149L204.2,149z M139.9,8.9
			c3.7-0.4,7.4-0.4,10.6-0.4c4.1,0,8.2,0,12.3,0.4c14.7,22.9,25.8,47.5,32.4,73.3H124c-2.5-7-7-13.1-12.7-17.6
			C118.6,44.9,128.1,26.5,139.9,8.9L139.9,8.9z M101,17.1c-7,13.1-13.1,27-18,41c-12.7,2.5-22.9,11.9-27,23.8H26.1
			C42.1,52.7,68.7,29.4,101,17.1z M8.5,150.6c0-13.5,2-27,5.7-39.3h44.6c2.5,4.5,6.1,8.6,10.2,11.9c-0.8,9.8-1.6,19.7-1.6,29.5
			c0,12.7,0.8,25,2.5,37.3H14.2C10.1,177.2,8.5,164.1,8.5,150.6z M74.8,218.6c5.3,22.1,13.1,43.8,23.8,64.3
			c-31.1-12.3-56.9-35.2-72.9-64.3L74.8,218.6L74.8,218.6z"/>
	</g>
</g>
</svg>
